<svg width="235" height="63" viewBox="0 0 235 63" fill="none" xmlns="http://www.w3.org/2000/svg">
<path d="M24.128 26H0.512L12.32 0.403999L24.128 26ZM2.6 24.668H22.04L12.32 3.572L2.6 24.668ZM39.5084 14.012C37.4684 13.604 35.8004 13.16 34.5044 12.68C33.2324 12.176 32.2244 11.504 31.4804 10.664C30.7604 9.8 30.4004 8.696 30.4004 7.352C30.4004 5.96 30.7604 4.736 31.4804 3.68C32.2244 2.624 33.2564 1.808 34.5764 1.232C35.9204 0.655999 37.4684 0.368 39.2204 0.368C40.9004 0.368 42.4364 0.727999 43.8284 1.448C45.2444 2.144 46.3604 3.128 47.1764 4.4C47.9924 5.672 48.4004 7.124 48.4004 8.756H47.0684C47.0684 7.34 46.7204 6.092 46.0244 5.012C45.3284 3.932 44.3804 3.104 43.1804 2.528C41.9804 1.928 40.6484 1.628 39.1844 1.628C37.8884 1.628 36.6764 1.832 35.5484 2.24C34.4204 2.648 33.4964 3.272 32.7764 4.112C32.0804 4.952 31.7324 6.008 31.7324 7.28C31.7324 8.432 32.0684 9.356 32.7404 10.052C33.4124 10.724 34.2884 11.24 35.3684 11.6C36.4484 11.96 37.9604 12.344 39.9044 12.752C41.8724 13.16 43.3964 13.556 44.4764 13.94C45.5804 14.3 46.5044 14.912 47.2484 15.776C48.0164 16.64 48.4004 17.852 48.4004 19.412C48.4004 20.972 47.9804 22.292 47.1404 23.372C46.3244 24.428 45.2324 25.22 43.8644 25.748C42.4964 26.276 41.0084 26.54 39.4004 26.54C37.4084 26.54 35.6564 26.168 34.1444 25.424C32.6324 24.68 31.4684 23.636 30.6524 22.292C29.8604 20.924 29.4644 19.364 29.4644 17.612H30.7964C30.7964 19.148 31.1324 20.492 31.8044 21.644C32.5004 22.796 33.4964 23.696 34.7924 24.344C36.0884 24.968 37.6244 25.28 39.4004 25.28C41.6084 25.28 43.4324 24.752 44.8724 23.696C46.3364 22.64 47.0684 21.2 47.0684 19.376C47.0684 18.128 46.7564 17.168 46.1324 16.496C45.5084 15.824 44.7164 15.344 43.7564 15.056C42.8204 14.744 41.4044 14.396 39.5084 14.012ZM64.9329 0.943999H66.3369L76.6329 26H75.1929L71.8089 17.72H59.4609L56.0409 26H54.6369L64.9329 0.943999ZM60.0009 16.424H71.2689L65.6169 2.672L60.0009 16.424ZM92.8053 14.012C90.7653 13.604 89.0973 13.16 87.8013 12.68C86.5293 12.176 85.5213 11.504 84.7773 10.664C84.0573 9.8 83.6973 8.696 83.6973 7.352C83.6973 5.96 84.0573 4.736 84.7773 3.68C85.5213 2.624 86.5533 1.808 87.8733 1.232C89.2173 0.655999 90.7653 0.368 92.5173 0.368C94.1973 0.368 95.7333 0.727999 97.1253 1.448C98.5413 2.144 99.6573 3.128 100.473 4.4C101.289 5.672 101.697 7.124 101.697 8.756H100.365C100.365 7.34 100.017 6.092 99.3213 5.012C98.6253 3.932 97.6773 3.104 96.4773 2.528C95.2773 1.928 93.9453 1.628 92.4813 1.628C91.1853 1.628 89.9733 1.832 88.8453 2.24C87.7173 2.648 86.7933 3.272 86.0733 4.112C85.3773 4.952 85.0293 6.008 85.0293 7.28C85.0293 8.432 85.3653 9.356 86.0373 10.052C86.7093 10.724 87.5853 11.24 88.6653 11.6C89.7453 11.96 91.2573 12.344 93.2013 12.752C95.1693 13.16 96.6933 13.556 97.7733 13.94C98.8773 14.3 99.8013 14.912 100.545 15.776C101.313 16.64 101.697 17.852 101.697 19.412C101.697 20.972 101.277 22.292 100.437 23.372C99.6213 24.428 98.5293 25.22 97.1613 25.748C95.7933 26.276 94.3053 26.54 92.6973 26.54C90.7053 26.54 88.9533 26.168 87.4413 25.424C85.9293 24.68 84.7653 23.636 83.9493 22.292C83.1573 20.924 82.7613 19.364 82.7613 17.612H84.0933C84.0933 19.148 84.4293 20.492 85.1013 21.644C85.7973 22.796 86.7933 23.696 88.0893 24.344C89.3853 24.968 90.9213 25.28 92.6973 25.28C94.9053 25.28 96.7293 24.752 98.1693 23.696C99.6333 22.64 100.365 21.2 100.365 19.376C100.365 18.128 100.053 17.168 99.4293 16.496C98.8053 15.824 98.0133 15.344 97.0533 15.056C96.1173 14.744 94.7013 14.396 92.8053 14.012ZM27.1604 36.908H50.7764L38.9684 62.504L27.1604 36.908ZM38.9684 59.336L48.7244 38.24H29.2484L38.9684 59.336ZM73.7529 36.944V38.276H66.2649V60.668H73.7529V62H57.5169V60.668H64.9689V38.276H57.5169V36.944H73.7529ZM97.7013 37.772C99.1413 38.444 100.269 39.44 101.085 40.76C101.925 42.08 102.345 43.544 102.345 45.152C102.345 47.024 101.769 48.704 100.617 50.192C99.4893 51.656 98.0373 52.628 96.2613 53.108L102.633 62H101.049L94.8933 53.36L93.7413 53.396H84.7053V62H83.3733V36.944H92.9133C93.9693 36.944 94.8693 37.016 95.6133 37.16C96.3813 37.28 97.0773 37.484 97.7013 37.772ZM94.1013 52.064C95.3493 52.064 96.5013 51.752 97.5573 51.128C98.6133 50.504 99.4533 49.664 100.077 48.608C100.701 47.552 101.013 46.4 101.013 45.152C101.013 43.76 100.641 42.5 99.8973 41.372C99.1773 40.244 98.1693 39.404 96.8733 38.852C95.9373 38.468 94.6173 38.276 92.9133 38.276H84.7053V52.064H94.1013ZM129.03 36.944V38.276H119.562V62H118.266V38.276H108.798V36.944H129.03ZM135.446 36.944H136.778V52.424C136.778 54.008 137.174 55.472 137.966 56.816C138.758 58.16 139.826 59.228 141.17 60.02C142.514 60.812 143.978 61.208 145.562 61.208C147.146 61.208 148.61 60.812 149.954 60.02C151.298 59.228 152.366 58.16 153.158 56.816C153.95 55.472 154.346 54.008 154.346 52.424V36.944H155.678V52.424C155.678 54.248 155.222 55.94 154.31 57.5C153.398 59.036 152.162 60.26 150.602 61.172C149.066 62.084 147.386 62.54 145.562 62.54C143.738 62.54 142.046 62.084 140.486 61.172C138.95 60.26 137.726 59.036 136.814 57.5C135.902 55.94 135.446 54.248 135.446 52.424V36.944ZM171.527 36.944H172.931L183.227 62H181.787L178.403 53.72H166.055L162.635 62H161.231L171.527 36.944ZM166.595 52.424H177.863L172.211 38.672L166.595 52.424ZM206.995 36.944V38.276H199.507V60.668H206.995V62H190.759V60.668H198.211V38.276H190.759V36.944H206.995ZM226.048 50.012C224.008 49.604 222.34 49.16 221.044 48.68C219.772 48.176 218.764 47.504 218.02 46.664C217.299 45.8 216.939 44.696 216.939 43.352C216.939 41.96 217.299 40.736 218.02 39.68C218.764 38.624 219.796 37.808 221.116 37.232C222.46 36.656 224.008 36.368 225.76 36.368C227.44 36.368 228.976 36.728 230.367 37.448C231.784 38.144 232.9 39.128 233.716 40.4C234.532 41.672 234.94 43.124 234.94 44.756H233.608C233.608 43.34 233.26 42.092 232.564 41.012C231.868 39.932 230.92 39.104 229.72 38.528C228.52 37.928 227.188 37.628 225.724 37.628C224.428 37.628 223.216 37.832 222.088 38.24C220.96 38.648 220.036 39.272 219.316 40.112C218.62 40.952 218.272 42.008 218.272 43.28C218.272 44.432 218.608 45.356 219.28 46.052C219.952 46.724 220.828 47.24 221.908 47.6C222.988 47.96 224.5 48.344 226.444 48.752C228.412 49.16 229.936 49.556 231.016 49.94C232.12 50.3 233.044 50.912 233.788 51.776C234.556 52.64 234.94 53.852 234.94 55.412C234.94 56.972 234.52 58.292 233.68 59.372C232.864 60.428 231.772 61.22 230.404 61.748C229.036 62.276 227.548 62.54 225.94 62.54C223.948 62.54 222.196 62.168 220.684 61.424C219.172 60.68 218.008 59.636 217.192 58.292C216.4 56.924 216.004 55.364 216.004 53.612H217.336C217.336 55.148 217.672 56.492 218.344 57.644C219.04 58.796 220.036 59.696 221.332 60.344C222.628 60.968 224.164 61.28 225.94 61.28C228.148 61.28 229.972 60.752 231.412 59.696C232.876 58.64 233.608 57.2 233.608 55.376C233.608 54.128 233.296 53.168 232.672 52.496C232.048 51.824 231.256 51.344 230.296 51.056C229.36 50.744 227.944 50.396 226.048 50.012Z" fill="black"/>
</svg>
